<svg width="24" height="24" viewBox="0 0 24 24" fill="none" xmlns="http://www.w3.org/2000/svg">
<path d="M7 22C6.45 22 5.97933 21.8043 5.588 21.413C5.19667 21.0217 5.00067 20.5507 5 20C5 19.45 5.196 18.9793 5.588 18.588C5.98 18.1967 6.45067 18.0007 7 18C7.55 18 8.021 18.196 8.413 18.588C8.805 18.98 9.00067 19.4507 9 20C9 20.55 8.80433 21.021 8.413 21.413C8.02167 21.805 7.55067 22.0007 7 22ZM17 22C16.45 22 15.9793 21.8043 15.588 21.413C15.1967 21.0217 15.0007 20.5507 15 20C15 19.45 15.196 18.9793 15.588 18.588C15.98 18.1967 16.4507 18.0007 17 18C17.55 18 18.021 18.196 18.413 18.588C18.805 18.98 19.0007 19.4507 19 20C19 20.55 18.8043 21.021 18.413 21.413C18.0217 21.805 17.5507 22.0007 17 22ZM5.2 4H19.95C20.3333 4 20.625 4.171 20.825 4.513C21.025 4.855 21.0333 5.20067 20.85 5.55L17.3 11.95C17.1167 12.2833 16.871 12.5417 16.563 12.725C16.255 12.9083 15.9173 13 15.55 13H8.1L7 15H19V17H7C6.25 17 5.68333 16.671 5.3 16.013C4.91667 15.355 4.9 14.7007 5.25 14.05L6.6 11.6L3 4H1V2H4.25L5.2 4Z" fill="#9192A3"/>
</svg>
