<svg width="28" height="28" viewBox="0 0 28 28" fill="none" xmlns="http://www.w3.org/2000/svg">
<path fill-rule="evenodd" clip-rule="evenodd" d="M2.94004 9.12681C2.33337 10.2316 2.33337 11.5675 2.33337 14.2368V16.0125C2.33337 20.5625 2.33337 22.8386 3.70071 24.2526C5.06687 25.6666 7.26721 25.6666 11.6667 25.6666H16.3334C20.7329 25.6666 22.9332 25.6666 24.2994 24.2526C25.6667 22.8386 25.6667 20.5636 25.6667 16.0125V14.238C25.6667 11.5675 25.6667 10.2328 25.06 9.12681C24.4557 8.01965 23.3485 7.33365 21.1354 5.95931L18.802 4.51148C16.4629 3.05898 15.2927 2.33331 14 2.33331C12.7074 2.33331 11.5384 3.05898 9.19804 4.51148L6.86471 5.95931C4.65154 7.33365 3.54554 8.01965 2.94004 9.12681ZM11.0204 17.9643C10.9284 17.8927 10.823 17.8402 10.7104 17.8099C10.5979 17.7796 10.4804 17.7721 10.3649 17.7879C10.2494 17.8036 10.1382 17.8423 10.0378 17.9016C9.93748 17.9609 9.84999 18.0396 9.78049 18.1332C9.711 18.2268 9.66091 18.3334 9.63316 18.4466C9.60541 18.5598 9.60056 18.6774 9.6189 18.7925C9.63724 18.9077 9.6784 19.0179 9.73996 19.1169C9.80152 19.2159 9.88224 19.3016 9.97737 19.369C11.1388 20.2374 12.5498 20.7071 14 20.7083C15.4498 20.7069 16.8604 20.2371 18.0215 19.369C18.1167 19.3016 18.1974 19.2159 18.259 19.1169C18.3205 19.0179 18.3617 18.9077 18.38 18.7925C18.3984 18.6774 18.3935 18.5598 18.3658 18.4466C18.338 18.3334 18.2879 18.2268 18.2184 18.1332C18.1489 18.0396 18.0614 17.9609 17.9611 17.9016C17.8607 17.8423 17.7495 17.8036 17.634 17.7879C17.5185 17.7721 17.401 17.7796 17.2885 17.8099C17.1759 17.8402 17.0705 17.8927 16.9785 17.9643C16.1189 18.6083 15.0741 18.957 14 18.9583C12.926 18.957 11.88 18.6083 11.0204 17.9643Z" fill="#31C48D"/>
</svg>
