<svg width="21" height="21" viewBox="0 0 21 21" fill="none" xmlns="http://www.w3.org/2000/svg">
<path d="M10.5 0.34375C4.89111 0.34375 0.34375 4.89111 0.34375 10.5C0.34375 16.1001 4.90039 20.6562 10.5 20.6562C16.1084 20.6562 20.6562 16.1084 20.6562 10.5C20.6562 4.8999 16.1001 0.34375 10.5 0.34375ZM15.7734 12.0625H9.91406C9.86226 12.0625 9.81258 12.0419 9.77596 12.0053C9.73933 11.9687 9.71875 11.919 9.71875 11.8672V3.66406C9.71875 3.61226 9.73933 3.56258 9.77596 3.52596C9.81258 3.48933 9.86226 3.46875 9.91406 3.46875H11.0859C11.1377 3.46875 11.1874 3.48933 11.224 3.52596C11.2607 3.56258 11.2812 3.61226 11.2812 3.66406V10.5H15.7734C15.8252 10.5 15.8749 10.5206 15.9115 10.5572C15.9482 10.5938 15.9688 10.6435 15.9688 10.6953V11.8672C15.9688 11.919 15.9482 11.9687 15.9115 12.0053C15.8749 12.0419 15.8252 12.0625 15.7734 12.0625Z" fill="#87C950"/>
</svg>
