<svg width="7" height="4" viewBox="0 0 7 4" fill="none" xmlns="http://www.w3.org/2000/svg">
<path d="M6.84592 0.15296C6.74723 0.0550196 6.6134 0 6.47386 0C6.33431 0 6.20048 0.0550196 6.10179 0.15296L3.49682 2.73897L0.891853 0.15296C0.7926 0.0577953 0.659666 0.00513768 0.521683 0.00632787C0.383701 0.00751829 0.251709 0.0624611 0.154137 0.159323C0.0565643 0.256186 0.00121927 0.387217 2.00272e-05 0.524196C-0.00117874 0.661174 0.0518646 0.79314 0.147727 0.891671L3.12476 3.84704C3.22345 3.94498 3.35728 4 3.49682 4C3.63637 4 3.7702 3.94498 3.86889 3.84704L6.84592 0.891671C6.94458 0.793701 7 0.660844 7 0.522315C7 0.383786 6.94458 0.250929 6.84592 0.15296Z" fill="black"/>
</svg>
