<svg width="24" height="24" viewBox="0 0 24 24" fill="none" xmlns="http://www.w3.org/2000/svg">
<g clip-path="url(#clip0_1012_466)">
<path d="M19 16.4L16 13L13 16.4C12.304 17.2009 11.9455 18.2404 12 19.3C12.06 19.8768 12.2297 20.4369 12.5 20.95H12C11.2043 20.95 10.4413 20.6339 9.87868 20.0713C9.31607 19.5087 9 18.7456 9 17.95V6H15V10.5C15 10.7652 15.1054 11.0196 15.2929 11.2071C15.4804 11.3946 15.7348 11.5 16 11.5C16.2652 11.5 16.5196 11.3946 16.7071 11.2071C16.8946 11.0196 17 10.7652 17 10.5V6H18C18.2652 6 18.5196 5.89464 18.7071 5.70711C18.8946 5.51957 19 5.26522 19 5C19 4.73478 18.8946 4.48043 18.7071 4.29289C18.5196 4.10536 18.2652 4 18 4H16V1H8V4H6C5.73478 4 5.48043 4.10536 5.29289 4.29289C5.10536 4.48043 5 4.73478 5 5C5 5.26522 5.10536 5.51957 5.29289 5.70711C5.48043 5.89464 5.73478 6 6 6H7V18C7 18.6566 7.12933 19.3068 7.3806 19.9134C7.63188 20.52 8.00017 21.0712 8.46447 21.5355C9.40215 22.4732 10.6739 23 12 23C12.7309 23.0124 13.4531 22.8405 14.1 22.5C14.6776 22.8326 15.3335 23.0051 16 23C16.9521 23.0029 17.874 22.666 18.6 22.05C19.0037 21.7095 19.335 21.2916 19.5743 20.8209C19.8137 20.3502 19.9562 19.8362 19.9935 19.3095C20.0308 18.7827 19.9621 18.2539 19.7914 17.7541C19.6208 17.2544 19.3517 16.7939 19 16.4ZM10 3H14V4H10V3Z" fill="#E63737"/>
</g>
<defs>
<clipPath id="clip0_1012_466">
<rect width="24" height="24" fill="white"/>
</clipPath>
</defs>
</svg>
