<svg width="24" height="24" viewBox="0 0 24 24" fill="none" xmlns="http://www.w3.org/2000/svg">
<g clip-path="url(#clip0_2204_1601)">
<path d="M7.38 16.176C7.60278 16.1092 7.84225 16.1361 8.04573 16.2509C8.24921 16.3656 8.40002 16.5589 8.465 16.788C8.52998 17.0171 8.5038 17.2635 8.39221 17.4727C8.28063 17.682 8.09278 17.8372 7.87 17.904C7.4325 18.0354 7.1175 18.174 6.91538 18.3C7.12363 18.4287 7.45262 18.5727 7.90937 18.7068C8.92 19.0038 10.3664 19.2 12 19.2C13.6336 19.2 15.08 19.0038 16.0906 18.7068C16.5482 18.5727 16.8764 18.4287 17.0846 18.3C16.8834 18.174 16.5684 18.0354 16.1309 17.904C15.9116 17.8342 15.7278 17.6786 15.619 17.4707C15.5102 17.2628 15.4852 17.0193 15.5494 16.7926C15.6135 16.5659 15.7617 16.3743 15.962 16.2589C16.1623 16.1436 16.3986 16.1138 16.62 16.176C17.2045 16.3515 17.74 16.5765 18.1513 16.8654C18.5319 17.1345 19 17.6034 19 18.3C19 19.0047 18.5205 19.4772 18.1337 19.7463C17.7155 20.0361 17.1686 20.262 16.571 20.4375C15.3653 20.793 13.75 21 12 21C10.25 21 8.63475 20.793 7.429 20.4375C6.83138 20.262 6.2845 20.0361 5.86625 19.7463C5.4795 19.4763 5 19.0047 5 18.3C5 17.6034 5.46812 17.1345 5.84875 16.8654C6.26 16.5765 6.7955 16.3515 7.38 16.176ZM12 3C13.7405 3 15.4097 3.71116 16.6404 4.97703C17.8711 6.2429 18.5625 7.95979 18.5625 9.75C18.5625 12.0612 17.3375 13.9404 16.0687 15.276C15.5644 15.8015 15.0224 16.2874 14.4474 16.7295C13.9276 17.1309 12.7394 17.8833 12.7394 17.8833C12.514 18.0151 12.2592 18.0843 12 18.0843C11.7408 18.0843 11.486 18.0151 11.2606 17.8833C10.6707 17.532 10.1004 17.1468 9.55263 16.7295C8.97735 16.2877 8.43535 15.8018 7.93125 15.276C6.6625 13.9404 5.4375 12.0612 5.4375 9.75C5.4375 7.95979 6.1289 6.2429 7.35961 4.97703C8.59032 3.71116 10.2595 3 12 3ZM12 7.95C11.5359 7.95 11.0908 8.13964 10.7626 8.47721C10.4344 8.81477 10.25 9.27261 10.25 9.75C10.25 10.2274 10.4344 10.6852 10.7626 11.0228C11.0908 11.3604 11.5359 11.55 12 11.55C12.4641 11.55 12.9092 11.3604 13.2374 11.0228C13.5656 10.6852 13.75 10.2274 13.75 9.75C13.75 9.27261 13.5656 8.81477 13.2374 8.47721C12.9092 8.13964 12.4641 7.95 12 7.95Z" fill="#31C48D"/>
</g>
<defs>
<clipPath id="clip0_2204_1601">
<rect width="24" height="24" fill="white"/>
</clipPath>
</defs>
</svg>
