<svg width="24" height="24" viewBox="0 0 24 24" fill="none" xmlns="http://www.w3.org/2000/svg">
<path fill-rule="evenodd" clip-rule="evenodd" d="M13.2447 2.90942C13.1746 2.75734 13.0623 2.62855 12.9212 2.53827C12.7802 2.448 12.6162 2.40002 12.4487 2.40002C12.2812 2.40002 12.1172 2.448 11.9761 2.53827C11.8351 2.62855 11.7228 2.75734 11.6526 2.90942L9.13647 8.36258L3.17394 9.07009C3.00758 9.08973 2.85033 9.15662 2.72081 9.26284C2.59128 9.36906 2.49489 9.51017 2.44306 9.66946C2.39122 9.82875 2.3861 9.99956 2.42831 10.1617C2.47052 10.3238 2.55829 10.4704 2.68122 10.5842L7.09109 14.6609L5.92068 20.5524C5.88817 20.7166 5.90337 20.8868 5.96447 21.0426C6.02557 21.1985 6.13002 21.3336 6.26548 21.432C6.40094 21.5304 6.56173 21.5879 6.72886 21.5978C6.89598 21.6077 7.06245 21.5696 7.20857 21.4879L12.4487 18.5544L17.6888 21.4879C17.835 21.5699 18.0017 21.6083 18.1691 21.5985C18.3365 21.5887 18.4975 21.5311 18.6332 21.4326C18.7688 21.334 18.8734 21.1987 18.9344 21.0425C18.9954 20.8863 19.0104 20.716 18.9776 20.5515L17.8072 14.6618L22.2162 10.5842C22.3391 10.4704 22.4269 10.3238 22.4691 10.1617C22.5113 9.99956 22.5062 9.82875 22.4543 9.66946C22.4025 9.51017 22.3061 9.36906 22.1766 9.26284C22.0471 9.15662 21.8898 9.08973 21.7234 9.07009L15.76 8.36171L13.2447 2.90942Z" fill="#FEA800"/>
</svg>
