<svg width="23" height="24" viewBox="0 0 23 24" fill="none" xmlns="http://www.w3.org/2000/svg">
<path d="M9.585 0H0V1.958H0.73V19.936C0.73 21.0136 1.15806 22.047 1.92003 22.809C2.68199 23.5709 3.71543 23.999 4.793 23.999C5.87057 23.999 6.90401 23.5709 7.66597 22.809C8.42793 22.047 8.856 21.0136 8.856 19.936V1.958H9.586L9.585 0ZM7.665 19.938C7.64578 20.6858 7.33535 21.3966 6.79982 21.9189C6.2643 22.4412 5.54601 22.7337 4.79795 22.7343C4.04989 22.7348 3.33119 22.4432 2.79494 21.9217C2.25868 21.4001 1.94726 20.6898 1.927 19.942V18.898H3.9V17.748H1.927V15.723H3.9V14.545H1.927V12.52H3.9V11.342H1.927V9.317H3.9V8.167H1.927V6.142H3.9V4.992H1.927V1.942H7.665V19.938ZM13.129 0V1.958H13.859V19.936C13.859 21.0136 14.2871 22.047 15.049 22.809C15.811 23.5709 16.8444 23.999 17.922 23.999C18.9996 23.999 20.033 23.5709 20.795 22.809C21.5569 22.047 21.985 21.0136 21.985 19.936V1.958H22.715V0H13.129ZM20.792 10.49H15.055V9.326H17.028V8.176H15.055V6.151H17.028V5.001H15.055V1.951H20.792V10.49Z" fill="#87C950"/>
</svg>
