<svg width="50" height="50" viewBox="0 0 50 50" fill="none" xmlns="http://www.w3.org/2000/svg">
<g clip-path="url(#clip0_1103_1539)">
<path d="M25.0127 27.5596C28.4914 27.5596 31.3115 24.7482 31.3115 21.2803C31.3115 17.8123 28.4914 15.001 25.0127 15.001C21.5339 15.001 18.7139 17.8123 18.7139 21.2803C18.7139 24.7482 21.5339 27.5596 25.0127 27.5596Z" fill="#F6DE00" stroke="#F6DE00" stroke-width="0.585938" stroke-miterlimit="10"/>
<path d="M25.0127 11.5342V7.82324M25.0127 34.7373V31.0264M31.9268 14.3857L34.5635 11.7686M15.4619 30.8018L18.0986 28.165M18.0986 14.3955L15.4619 11.7588M34.5635 30.8018L31.9268 28.165M15.2275 21.2803H11.5068M38.5186 21.2803H34.7881" stroke="#F6DE00" stroke-width="1.79687" stroke-miterlimit="10" stroke-linecap="round"/>
</g>
<defs>
<clipPath id="clip0_1103_1539">
<rect width="28.8086" height="28.7109" fill="white" transform="translate(10.6084 6.9248)"/>
</clipPath>
</defs>
</svg>
