<svg width="32" height="32" viewBox="0 0 32 32" fill="none" xmlns="http://www.w3.org/2000/svg">
<path d="M24.6973 5.63467C18.9171 4.98864 13.0829 4.98864 7.30267 5.63467C6.97609 5.67098 6.6653 5.79453 6.40292 5.99234C6.14054 6.19016 5.93624 6.45495 5.81145 6.75893C5.68667 7.06291 5.646 7.39487 5.69373 7.71998C5.74145 8.04509 5.87579 8.35137 6.08267 8.60667L11.108 14.8187C12.5476 16.5982 13.3331 18.8178 13.3333 21.1067V25.296C13.3332 25.4531 13.3701 25.6079 13.441 25.7481C13.5119 25.8882 13.6148 26.0097 13.7413 26.1027L17.436 28.812C17.5513 28.8965 17.6877 28.9475 17.8302 28.9591C17.9727 28.9708 18.1156 28.9428 18.2431 28.8781C18.3706 28.8135 18.4776 28.7148 18.5524 28.5929C18.6272 28.4711 18.6667 28.3309 18.6667 28.188V21.1067C18.667 18.8171 19.453 16.5971 20.8933 14.8173L25.9173 8.604C26.1239 8.34869 26.2579 8.04254 26.3054 7.71762C26.3529 7.3927 26.3122 7.06098 26.1875 6.75722C26.0627 6.45346 25.8585 6.18885 25.5964 5.99111C25.3342 5.79338 25.0237 5.67113 24.6973 5.63467Z" fill="white"/>
</svg>
