<svg width="24" height="24" viewBox="0 0 24 24" fill="none" xmlns="http://www.w3.org/2000/svg">
<g clip-path="url(#clip0_2204_1582)">
<path fill-rule="evenodd" clip-rule="evenodd" d="M15.682 3.28198C16.036 2.92817 16.5099 2.71997 17.0099 2.6985C17.51 2.67702 17.9999 2.84383 18.383 3.16598L18.51 3.28198L19.217 3.98998C19.5707 4.34384 19.7789 4.8174 19.8005 5.31723C19.8222 5.81705 19.6557 6.30685 19.334 6.68998L19.218 6.81798L18.51 7.52498C18.449 7.58575 18.3842 7.64253 18.316 7.69498C18.4035 8.00866 18.413 8.33897 18.3439 8.65719C18.2747 8.97542 18.1288 9.27193 17.919 9.52098L17.803 9.64598L16.813 10.636C17.5015 11.2454 18.0526 11.9942 18.4296 12.8328C18.8067 13.6713 19.0011 14.5805 19 15.5C19 17.144 18.39 18.645 17.384 19.79L17.19 20H20C20.2549 20.0003 20.5 20.0979 20.6854 20.2728C20.8707 20.4478 20.9822 20.6869 20.9972 20.9414C21.0121 21.1958 20.9293 21.4464 20.7657 21.6418C20.6021 21.8373 20.3701 21.9629 20.117 21.993L20 22H3.99999C3.74511 21.9997 3.49996 21.9021 3.31462 21.7271C3.12929 21.5522 3.01776 21.313 3.00282 21.0586C2.98788 20.8041 3.07067 20.5536 3.23426 20.3581C3.39785 20.1627 3.62989 20.0371 3.88299 20.007L3.99999 20H12.5C13.4028 20.0001 14.2848 19.7286 15.0313 19.2209C15.7778 18.7132 16.3543 17.9927 16.686 17.153C17.0176 16.3133 17.089 15.3932 16.8908 14.5124C16.6927 13.6316 16.2342 12.8308 15.575 12.214L15.395 12.054L12.146 15.304C11.792 15.6575 11.3184 15.8655 10.8185 15.887C10.3187 15.9085 9.829 15.7418 9.44599 15.42L9.31799 15.303L7.19699 13.182C6.84304 12.8281 6.63466 12.3543 6.613 11.8542C6.59134 11.3542 6.75797 10.8642 7.07999 10.481L7.19699 10.354L12.854 4.69698C13.1045 4.44642 13.417 4.26689 13.7596 4.17676C14.1022 4.08662 14.4626 4.08911 14.804 4.18398L14.886 4.08398L14.975 3.98998L15.682 3.28198ZM6.48999 13.89L8.60999 16.011C8.70556 16.1032 8.78182 16.2134 8.83432 16.3354C8.88681 16.4574 8.91449 16.5886 8.91573 16.7214C8.91698 16.8541 8.89177 16.9858 8.84158 17.1088C8.79138 17.2317 8.71721 17.3434 8.62338 17.4374C8.52956 17.5313 8.41796 17.6056 8.2951 17.656C8.17224 17.7064 8.04058 17.7318 7.9078 17.7307C7.77502 17.7297 7.64378 17.7022 7.52174 17.6498C7.3997 17.5975 7.28931 17.5214 7.19699 17.426L5.07499 15.304C4.98215 15.2111 4.90851 15.1008 4.85829 14.9794C4.80807 14.858 4.78224 14.728 4.78229 14.5966C4.78233 14.4653 4.80825 14.3352 4.85856 14.2139C4.90887 14.0926 4.98258 13.9823 5.07549 13.8895C5.1684 13.7966 5.27869 13.723 5.40006 13.6728C5.52142 13.6226 5.6515 13.5967 5.78284 13.5968C5.91419 13.5968 6.04425 13.6227 6.16558 13.673C6.28691 13.7234 6.39715 13.7971 6.48999 13.89ZM17.096 4.69798L16.389 5.40498L17.096 6.11198L17.803 5.40498L17.096 4.69798Z" fill="#31C48D"/>
</g>
<defs>
<clipPath id="clip0_2204_1582">
<rect width="24" height="24" fill="white"/>
</clipPath>
</defs>
</svg>
