<svg width="29" height="28" viewBox="0 0 29 28" fill="none" xmlns="http://www.w3.org/2000/svg">
<path fill-rule="evenodd" clip-rule="evenodd" d="M14.5 2.33331C8.05654 2.33331 2.83337 7.55648 2.83337 14C2.83337 20.4435 8.05654 25.6666 14.5 25.6666C20.9435 25.6666 26.1667 20.4435 26.1667 14C26.1667 7.55648 20.9435 2.33331 14.5 2.33331ZM10.4167 11.0833C10.4167 10.5471 10.5223 10.0161 10.7275 9.52069C10.9327 9.02528 11.2335 8.57513 11.6127 8.19596C11.9919 7.81679 12.442 7.51601 12.9374 7.31081C13.4328 7.1056 13.9638 6.99998 14.5 6.99998C15.0363 6.99998 15.5673 7.1056 16.0627 7.31081C16.5581 7.51601 17.0082 7.81679 17.3874 8.19596C17.7666 8.57513 18.0673 9.02528 18.2726 9.52069C18.4778 10.0161 18.5834 10.5471 18.5834 11.0833C18.5834 12.1663 18.1532 13.2049 17.3874 13.9707C16.6216 14.7364 15.583 15.1666 14.5 15.1666C13.4171 15.1666 12.3785 14.7364 11.6127 13.9707C10.8469 13.2049 10.4167 12.1663 10.4167 11.0833ZM21.801 19.8146C20.9277 20.9132 19.8175 21.8003 18.5532 22.4096C17.289 23.0188 15.9034 23.3346 14.5 23.3333C13.0966 23.3346 11.7111 23.0188 10.4468 22.4096C9.18261 21.8003 8.07236 20.9132 7.19904 19.8146C9.09021 18.4578 11.6709 17.5 14.5 17.5C17.3292 17.5 19.9099 18.4578 21.801 19.8146Z" fill="#CDCDCD"/>
</svg>
