<svg width="22" height="21" viewBox="0 0 22 21" fill="none" xmlns="http://www.w3.org/2000/svg">
<path d="M20.09 20.5298L12.944 13.3848H2.442C2.442 12.2268 3.03867 11.2321 4.232 10.4008C5.42534 9.56943 7.034 9.15377 9.058 9.15377C9.25667 9.15377 9.454 9.15777 9.65 9.16577C9.846 9.17377 10.0307 9.19077 10.204 9.21677V10.6378L0.867004 1.30777L1.581 0.593766L20.804 19.8168L20.09 20.5298ZM2.442 16.6928V15.6928H15.673V16.6928H2.442ZM3.212 19.9998C3.00534 19.9998 2.82534 19.9231 2.672 19.7698C2.51867 19.6164 2.442 19.4364 2.442 19.2298V18.9998H15.673V19.2298C15.673 19.4364 15.5963 19.6164 15.443 19.7698C15.2897 19.9231 15.1097 19.9998 14.903 19.9998H3.212ZM20.317 16.5198L11.835 8.02277L11.327 4.38477H15.942V0.384766H16.942V4.38477H21.558L20.317 16.5198Z" fill="#87C950"/>
</svg>
