<svg width="28" height="28" viewBox="0 0 28 28" fill="none" xmlns="http://www.w3.org/2000/svg">
<path d="M16.0416 2.33331H11.9583C11.3126 2.33333 10.6896 2.57132 10.2083 3.00178C9.72709 3.43224 9.42137 4.02497 9.34963 4.66665H7.29163C6.59543 4.66665 5.92775 4.94321 5.43547 5.43549C4.94319 5.92777 4.66663 6.59545 4.66663 7.29165V23.0416C4.66663 23.7378 4.94319 24.4055 5.43547 24.8978C5.92775 25.3901 6.59543 25.6666 7.29163 25.6666H20.7083C21.053 25.6666 21.3944 25.5988 21.7128 25.4668C22.0313 25.3349 22.3207 25.1416 22.5644 24.8978C22.8082 24.654 23.0016 24.3647 23.1335 24.0462C23.2654 23.7277 23.3333 23.3864 23.3333 23.0416V7.29165C23.3333 6.94693 23.2654 6.60558 23.1335 6.2871C23.0016 5.96862 22.8082 5.67925 22.5644 5.43549C22.3207 5.19174 22.0313 4.99838 21.7128 4.86646C21.3944 4.73454 21.053 4.66665 20.7083 4.66665H18.6503C18.5786 4.02497 18.2728 3.43224 17.7916 3.00178C17.3103 2.57132 16.6873 2.33333 16.0416 2.33331ZM11.9583 4.08331H16.0416C16.2737 4.08331 16.4962 4.1755 16.6603 4.33959C16.8244 4.50369 16.9166 4.72625 16.9166 4.95831C16.9166 5.19038 16.8244 5.41294 16.6603 5.57703C16.4962 5.74113 16.2737 5.83331 16.0416 5.83331H11.9583C11.7262 5.83331 11.5037 5.74113 11.3396 5.57703C11.1755 5.41294 11.0833 5.19038 11.0833 4.95831C11.0833 4.72625 11.1755 4.50369 11.3396 4.33959C11.5037 4.1755 11.7262 4.08331 11.9583 4.08331ZM14.5833 11.9583C14.5833 11.7262 14.6755 11.5037 14.8396 11.3396C15.0037 11.1755 15.2262 11.0833 15.4583 11.0833H19.5416C19.7737 11.0833 19.9963 11.1755 20.1603 11.3396C20.3244 11.5037 20.4166 11.7262 20.4166 11.9583C20.4166 12.1904 20.3244 12.4129 20.1603 12.577C19.9963 12.7411 19.7737 12.8333 19.5416 12.8333H15.4583C15.2262 12.8333 15.0037 12.7411 14.8396 12.577C14.6755 12.4129 14.5833 12.1904 14.5833 11.9583ZM15.4583 17.5H19.5416C19.7737 17.5 19.9963 17.5922 20.1603 17.7563C20.3244 17.9204 20.4166 18.1429 20.4166 18.375C20.4166 18.607 20.3244 18.8296 20.1603 18.9937C19.9963 19.1578 19.7737 19.25 19.5416 19.25H15.4583C15.2262 19.25 15.0037 19.1578 14.8396 18.9937C14.6755 18.8296 14.5833 18.607 14.5833 18.375C14.5833 18.1429 14.6755 17.9204 14.8396 17.7563C15.0037 17.5922 15.2262 17.5 15.4583 17.5ZM12.5766 11.41L10.2433 13.7433C10.0792 13.9072 9.85683 13.9992 9.62496 13.9992C9.39308 13.9992 9.17069 13.9072 9.00663 13.7433L7.83996 12.5766C7.75399 12.4965 7.68504 12.3999 7.63721 12.2926C7.58939 12.1853 7.56368 12.0694 7.5616 11.9519C7.55953 11.8344 7.58114 11.7177 7.62515 11.6088C7.66916 11.4998 7.73466 11.4009 7.81775 11.3178C7.90084 11.2347 7.99981 11.1692 8.10876 11.1252C8.21771 11.0812 8.33442 11.0596 8.4519 11.0616C8.56939 11.0637 8.68525 11.0894 8.79259 11.1372C8.89992 11.1851 8.99652 11.254 9.07663 11.34L9.62496 11.8883L11.34 10.1733C11.4201 10.0873 11.5167 10.0184 11.624 9.97057C11.7313 9.92274 11.8472 9.89703 11.9647 9.89496C12.0822 9.89288 12.1989 9.9145 12.3078 9.9585C12.4168 10.0025 12.5157 10.068 12.5988 10.1511C12.6819 10.2342 12.7474 10.3332 12.7914 10.4421C12.8354 10.5511 12.8571 10.6678 12.855 10.7853C12.8529 10.9027 12.8272 11.0186 12.7794 11.1259C12.7315 11.2333 12.6626 11.3299 12.5766 11.41ZM12.5766 16.59C12.7405 16.754 12.8325 16.9764 12.8325 17.2083C12.8325 17.4402 12.7405 17.6626 12.5766 17.8266L10.2433 20.16C10.0792 20.3238 9.85683 20.4159 9.62496 20.4159C9.39308 20.4159 9.17069 20.3238 9.00663 20.16L7.83996 18.9933C7.75399 18.9132 7.68504 18.8166 7.63721 18.7093C7.58939 18.6019 7.56368 18.4861 7.5616 18.3686C7.55953 18.2511 7.58114 18.1344 7.62515 18.0254C7.66916 17.9165 7.73466 17.8175 7.81775 17.7344C7.90084 17.6513 7.99981 17.5858 8.10876 17.5418C8.21771 17.4978 8.33442 17.4762 8.4519 17.4783C8.56939 17.4804 8.68525 17.5061 8.79259 17.5539C8.89992 17.6017 8.99652 17.6707 9.07663 17.7566L9.62496 18.305L11.34 16.59C11.504 16.4261 11.7264 16.3341 11.9583 16.3341C12.1902 16.3341 12.4126 16.4261 12.5766 16.59Z" fill="#CDCDCD"/>
</svg>
