<svg width="20" height="14" viewBox="0 0 20 14" fill="none" xmlns="http://www.w3.org/2000/svg">
<path d="M0.833496 7.34219H3.92196C4.052 7.3407 4.1793 7.30465 4.29082 7.23774C4.40234 7.17083 4.49406 7.07546 4.55657 6.96142L7.09503 1.8845C7.1576 1.7581 7.25734 1.65386 7.38086 1.5858C7.50439 1.51773 7.64578 1.4891 7.78606 1.50373C7.92578 1.51317 8.05913 1.56572 8.16774 1.65412C8.27634 1.74252 8.35486 1.86243 8.39247 1.99732L11.5373 12.4614C11.5786 12.6034 11.6634 12.7287 11.7799 12.8199C11.8963 12.911 12.0384 12.9632 12.1861 12.9691C12.3245 12.9645 12.4585 12.9193 12.5713 12.839C12.6842 12.7588 12.7709 12.6471 12.8207 12.5178L14.7527 7.79347C14.8059 7.66095 14.8974 7.54726 15.0154 7.46689C15.1335 7.38652 15.2727 7.34311 15.4155 7.34219H19.1668" stroke="white" stroke-width="1.33333" stroke-linecap="round" stroke-linejoin="round"/>
</svg>
