<svg width="27" height="29" viewBox="0 0 27 29" fill="none" xmlns="http://www.w3.org/2000/svg">
<path fill-rule="evenodd" clip-rule="evenodd" d="M18.6977 1.75001C19.2101 1.23792 19.8959 0.936584 20.6197 0.9055C21.3435 0.874416 22.0526 1.11585 22.607 1.58211L22.7908 1.75001L23.8141 2.77475C24.326 3.28691 24.6274 3.97233 24.6587 4.69576C24.6901 5.4192 24.4491 6.12811 23.9835 6.68264L23.8156 6.8679L22.7908 7.89119C22.7026 7.97915 22.6088 8.06133 22.51 8.13725C22.6367 8.59126 22.6505 9.06934 22.5504 9.52993C22.4502 9.99051 22.2391 10.4197 21.9354 10.7801L21.7675 10.9611L20.3346 12.394C21.3312 13.2759 22.1288 14.3598 22.6745 15.5735C23.2202 16.7873 23.5016 18.1032 23.5 19.434C23.5 21.8134 22.6171 23.9859 21.1611 25.6432L20.8803 25.9471H24.9474C25.3163 25.9475 25.6711 26.0888 25.9394 26.342C26.2076 26.5953 26.3691 26.9414 26.3907 27.3097C26.4123 27.6779 26.2925 28.0406 26.0557 28.3235C25.8189 28.6063 25.4831 28.7881 25.1168 28.8317L24.9474 28.8419H1.78951C1.42061 28.8414 1.06578 28.7002 0.797535 28.4469C0.529285 28.1937 0.367859 27.8476 0.34624 27.4793C0.32462 27.111 0.444439 26.7484 0.681214 26.4655C0.917989 26.1826 1.25385 26.0008 1.62017 25.9572L1.78951 25.9471H14.0921C15.3988 25.9473 16.6754 25.5544 17.7559 24.8195C18.8363 24.0847 19.6708 23.0418 20.1508 21.8264C20.6308 20.6111 20.7341 19.2795 20.4473 18.0046C20.1606 16.7298 19.497 15.5707 18.5428 14.6779L18.2823 14.4463L13.5798 19.1503C13.0674 19.662 12.3819 19.963 11.6585 19.9941C10.935 20.0252 10.2262 19.784 9.67188 19.3182L9.48662 19.1488L6.41675 16.079C5.90446 15.5667 5.60286 14.881 5.5715 14.1572C5.54015 13.4335 5.78133 12.7242 6.24741 12.1696L6.41675 11.9858L14.6045 3.79803C14.967 3.43539 15.4194 3.17554 15.9153 3.04508C16.4112 2.91462 16.9328 2.91823 17.4269 3.05553L17.5456 2.9108L17.6744 2.77475L18.6977 1.75001ZM5.39346 17.1037L8.46188 20.1736C8.60021 20.307 8.71059 20.4666 8.78656 20.6431C8.86254 20.8197 8.9026 21.0096 8.90441 21.2017C8.90621 21.3939 8.86972 21.5845 8.79707 21.7625C8.72442 21.9404 8.61707 22.1021 8.48127 22.2381C8.34547 22.374 8.18395 22.4816 8.00612 22.5545C7.8283 22.6274 7.63774 22.6642 7.44556 22.6627C7.25338 22.6611 7.06343 22.6213 6.88679 22.5456C6.71015 22.4699 6.55037 22.3597 6.41675 22.2216L3.34544 19.1503C3.21106 19.0158 3.10448 18.8562 3.03179 18.6805C2.9591 18.5048 2.92172 18.3166 2.92179 18.1265C2.92185 17.9364 2.95937 17.7481 3.03218 17.5725C3.10499 17.3969 3.21168 17.2373 3.34616 17.103C3.48063 16.9686 3.64026 16.862 3.81593 16.7893C3.99159 16.7166 4.17985 16.6793 4.36996 16.6793C4.56007 16.6794 4.7483 16.7169 4.92392 16.7897C5.09953 16.8625 5.25908 16.9692 5.39346 17.1037ZM20.7443 3.79948L19.721 4.82277L20.7443 5.84606L21.7675 4.82277L20.7443 3.79948Z" fill="#A1E06D"/>
</svg>
