<svg width="70" height="61" viewBox="0 0 70 61" fill="none" xmlns="http://www.w3.org/2000/svg">
<path d="M34.9074 0.15918C33.6899 0.15918 32.4716 0.756493 31.764 1.94969L0.516763 54.6408C-0.927821 57.0766 0.827594 60.1592 3.65946 60.1592H66.1547C68.9866 60.1592 70.7427 57.0766 69.2981 54.6408L38.0502 1.94969C37.3425 0.756493 36.125 0.15918 34.9074 0.15918ZM34.9074 4.63832L65.4163 56.084H4.39787L34.9074 4.63832Z" fill="#F14D4D"/>
<path d="M32.7131 42.2526L31.1847 19.5375C31.0465 17.4813 32.6006 15.7022 34.6576 15.564C36.7138 15.4251 38.4928 16.98 38.6311 19.0362C38.6418 19.198 38.6404 19.38 38.6311 19.5375L37.1027 42.2526C36.8391 44.9756 32.9731 44.9692 32.7131 42.2526Z" fill="#F14D4D"/>
<path d="M37.9529 50.5104C37.9529 52.192 36.5893 53.5557 34.9076 53.5557C33.226 53.5557 31.8623 52.192 31.8623 50.5104C31.8623 48.8287 33.226 47.4651 34.9076 47.4651C36.5893 47.4651 37.9529 48.8287 37.9529 50.5104Z" fill="#F14D4D"/>
</svg>
